<?xml version="1.0" standalone="no"?>
<!DOCTYPE svg PUBLIC "-//W3C//DTD SVG 20010904//EN"
 "http://www.w3.org/TR/2001/REC-SVG-20010904/DTD/svg10.dtd">
<svg version="1.0" xmlns="http://www.w3.org/2000/svg"
 width="260.000000pt" height="280.000000pt" viewBox="0 0 260.000000 280.000000"
 preserveAspectRatio="xMidYMid meet">
<metadata>
Created by potrace 1.16, written by Peter Selinger 2001-2019
</metadata>
<g transform="translate(0.000000,280.000000) scale(0.100000,-0.100000)"
fill="#000000" stroke="none">
<path d="M879 1977 c-50 -19 -92 -50 -129 -97 -35 -44 -82 -152 -57 -132 11
10 16 4 27 -31 l14 -42 7 60 c11 97 37 141 108 183 79 46 164 32 245 -43 31
-28 36 -30 30 -12 -3 12 -12 28 -18 36 -9 12 -7 13 8 7 44 -16 -15 32 -64 53
-65 28 -126 34 -171 18z"/>
<path d="M1595 1976 c-54 -17 -98 -41 -116 -62 -12 -15 -12 -17 0 -9 10 6 13
4 9 -6 -21 -56 -20 -58 18 -24 82 75 166 89 247 42 61 -36 98 -99 107 -181 l6
-61 14 42 c11 35 16 41 27 31 22 -18 -21 87 -52 127 -49 65 -134 114 -195 114
-14 0 -43 -6 -65 -13z"/>
<path d="M928 1833 c-3 -34 -6 -38 -27 -35 -31 3 -41 -12 -41 -66 0 -110 93
-189 159 -134 30 25 46 117 31 187 -13 62 -36 85 -87 85 -30 0 -32 -3 -35 -37z"/>
<path d="M1581 1853 c-47 -40 -47 -216 0 -255 66 -55 159 24 159 134 0 54 -10
69 -41 66 -21 -3 -24 1 -27 35 -3 35 -5 37 -36 37 -19 0 -43 -8 -55 -17z"/>
<path d="M670 1335 c0 -51 -3 -65 -15 -65 -10 0 -15 -10 -15 -30 0 -20 5 -30
15 -30 11 0 15 -12 15 -50 l0 -50 36 0 c34 0 36 2 30 25 -4 14 -3 36 0 51 6
22 11 25 43 22 35 -3 36 -4 39 -50 3 -46 5 -48 33 -48 28 0 29 2 29 45 0 31 5
47 15 51 9 4 15 19 15 35 0 19 -5 29 -15 29 -12 0 -15 14 -15 65 l0 65 -105 0
-105 0 0 -65z"/>
<path d="M940 1255 l0 -145 30 0 30 0 0 97 0 97 45 -44 c42 -41 45 -48 45 -97
l0 -53 35 0 35 0 0 145 0 145 -35 0 c-34 0 -35 -1 -35 -42 l0 -42 -43 42 c-32
32 -51 42 -75 42 l-32 0 0 -145z"/>
<path d="M1210 1370 c0 -20 5 -30 15 -30 12 0 15 -16 15 -85 0 -69 -3 -85 -15
-85 -10 0 -15 -10 -15 -30 0 -30 0 -30 59 -30 50 0 59 3 64 20 3 11 -1 27 -9
34 -21 21 -20 176 1 176 10 0 15 10 15 30 l0 30 -65 0 -65 0 0 -30z"/>
<path d="M1390 1255 l0 -145 36 0 35 0 -3 95 c-2 52 0 95 4 95 4 0 16 -12 27
-26 17 -21 21 -41 21 -95 l0 -69 30 0 30 0 0 73 c0 65 3 76 25 97 l25 23 0
-96 0 -97 35 0 35 0 0 145 0 145 -32 0 c-24 0 -43 -10 -75 -42 l-43 -42 -43
42 c-32 32 -51 42 -75 42 l-32 0 0 -145z"/>
<path d="M1745 1390 c-4 -6 -5 -29 -4 -51 2 -22 -2 -43 -8 -47 -15 -10 -13
-60 3 -66 10 -4 14 -23 14 -61 l0 -55 105 0 105 0 0 30 0 30 -75 0 -75 0 0 30
c0 29 2 30 45 30 43 0 45 1 45 30 0 29 -2 30 -45 30 -41 0 -45 2 -45 25 0 24
2 25 75 25 l75 0 0 30 0 30 -104 0 c-61 0 -107 -4 -111 -10z"/>
</g>
</svg>
